<svg xmlns="http://www.w3.org/2000/svg" width="422" height="65" viewBox="0 0 422 65" fill="none"><path d="M301.971 48.903C302.269 48.3067 301.852 47.5911 301.196 47.5911C301.196 47.5911 301.196 47.5911 301.136 47.5911L287.839 48.0085C287.839 48.0085 287.839 48.0085 287.779 48.0085C287.183 48.0085 286.765 47.4122 286.885 46.8756L299.705 0.483032H267.564C278.596 5.07458 274.541 20.3996 274.541 20.3996L261.959 64.1684H293.742L301.971 48.903Z" fill="#FDEA21"></path><path d="M48.1814 23.9778C47.8237 23.9778 47.4659 23.7392 47.287 23.3218L40.4295 0.542969H17.591L0 64.1687H19.857L26.1778 41.3899C26.297 40.9724 26.6548 40.7339 27.0722 40.7339C27.43 40.7339 27.7878 40.9724 27.9667 41.3899L34.8242 64.1687H56.2912L73.8822 0.542969H55.3967L49.0759 23.3218C48.9566 23.7392 48.5392 23.9778 48.1814 23.9778Z" fill="#FDEA21"></path><path d="M391.592 40.7932L421.229 0.483032H400.656L386.643 22.9041C386.464 23.2023 386.166 23.3215 385.868 23.3215C385.45 23.3215 384.437 23.0234 384.377 22.5463L382.051 0.483032H361.896L368.873 40.5547C368.873 40.674 368.873 40.8529 368.813 40.9721L361.062 64.1088H385.212L391.592 40.7932Z" fill="#FDEA21"></path><path d="M270.127 6.38676C267.622 2.51078 263.15 0.542969 256.889 0.542969H208.29C211.033 1.85484 213.299 3.70339 214.67 5.79045C218.069 10.9187 218.904 17.8954 217.235 26.8996L217.175 27.1382C216.817 28.9271 216.4 30.7756 215.863 32.7434C215.148 35.2479 214.372 37.6331 213.478 39.8991L205.428 64.2283H225.046L232.5 44.4906C232.619 44.0732 232.977 43.8347 233.394 43.8347H244.903C251.224 43.8347 256.77 41.8669 261.54 37.812C266.191 33.936 269.471 28.5693 271.26 22.0696C273.108 15.5102 272.81 10.2627 270.127 6.38676ZM248.541 22.3081L237.39 26.9593C236.853 27.1978 236.257 26.84 236.436 26.3033L239.656 15.6295C239.775 15.1524 240.49 14.9139 240.848 15.2717L248.839 21.2944C249.077 21.5925 248.958 22.0696 248.541 22.3081Z" fill="#FDEA21"></path><path d="M332.143 0.483032L297.378 64.1684H315.267L318.785 56.9531C318.964 56.655 319.262 56.4164 319.62 56.4164H335.959C336.496 56.4164 336.913 56.8339 336.853 57.3705L336.615 64.1088H357.485L357.963 0.483032H332.143ZM337.39 39.4814C337.39 39.7199 337.271 39.9584 337.092 40.0777C336.913 40.2566 336.734 40.3162 336.436 40.3162H330.89C330.652 40.3162 330.413 40.1969 330.234 40.0777C330.115 39.9584 329.996 39.7795 329.996 39.6006C329.936 39.4217 329.996 39.2429 330.055 39.0043L336.257 25.7664C336.317 25.6471 336.376 25.5875 336.436 25.5278L336.496 25.4682C336.555 25.4086 336.615 25.4086 336.674 25.3489C336.674 25.3489 336.734 25.3489 336.734 25.2893C336.794 25.2893 336.853 25.2297 336.913 25.2297H336.973C337.032 25.2297 337.032 25.2297 337.092 25.2297C337.151 25.2297 337.211 25.2297 337.33 25.2893C337.39 25.2893 337.39 25.2893 337.45 25.3489C337.509 25.4086 337.569 25.4086 337.629 25.4682C337.688 25.4682 337.688 25.5278 337.748 25.5278C337.807 25.5875 337.867 25.6471 337.867 25.7067C337.867 25.7664 337.927 25.7664 337.927 25.826C337.986 25.9453 337.986 26.0645 337.986 26.1838L337.39 39.4814Z" fill="#FDEA21"></path><path d="M195.051 0.125244C186.762 0.125244 179.487 2.80861 173.107 8.11573C166.786 13.4228 162.135 21.2941 159.273 31.6698C156.41 42.0455 156.53 50.0956 159.631 55.7009C162.731 61.3061 168.515 64.1684 177.043 64.1684C185.51 64.1684 192.904 61.4254 199.404 55.8798C205.844 50.2745 210.495 42.2244 213.358 31.8487C216.279 21.2941 216.041 13.4228 212.582 8.11573C209.064 2.80861 203.22 0.125244 195.051 0.125244ZM193.202 32.0872C190.459 42.1051 186.703 47.1141 181.813 47.293C177.281 47.2333 176.387 42.1647 179.13 32.1468C181.873 22.1289 185.629 17.1199 190.281 17.1199C194.991 17.1199 196.005 22.0693 193.202 32.0872Z" fill="#FDEA21"></path><path d="M157.126 17.2395C157.245 16.8221 157.603 16.5836 158.02 16.5836H162.79C165.414 12.0516 168.455 8.53346 172.093 5.4923C174.359 3.64376 177.758 1.79521 180.203 0.542969H126.237L121.765 16.6432H135.957C136.553 16.6432 136.97 17.2395 136.851 17.7762L124.031 64.1687H144.186L157.126 17.2395Z" fill="#FDEA21"></path><path d="M124.268 48.0685H83.7791C83.1828 48.0685 82.7654 47.4722 82.8847 46.9355L84.4947 41.0321C84.614 40.6147 84.9717 40.3761 85.3892 40.3761H109.42C109.838 40.3761 110.195 40.078 110.315 39.7202L114.25 25.4685C114.429 24.8722 113.952 24.3355 113.356 24.3355H90.3385C89.7422 24.3355 89.3248 23.7392 89.444 23.2026L91.0541 17.2991C91.1733 16.8817 91.5311 16.6432 91.9485 16.6432H118.126C118.544 16.6432 118.901 16.345 119.021 15.9873L123.314 0.542969H77.339L77.1602 1.25853L59.748 64.1687H121.048L125.163 49.2611C125.282 48.6648 124.865 48.0685 124.268 48.0685Z" fill="#FDEA21"></path></svg>